<svg width="302" height="230" viewBox="0 0 302 230" fill="none" class="hero-pattern" xmlns="http://www.w3.org/2000/svg">
<rect width="15" height="15" fill="#F1F5F9"/>
<rect x="41" width="15" height="15" fill="#F1F5F9"/>
<rect x="82" width="15" height="15" fill="#F1F5F9"/>
<rect x="123" width="15" height="15" fill="#F1F5F9"/>
<rect x="164" width="15" height="15" fill="#F1F5F9"/>
<rect x="205" width="15" height="15" fill="#F1F5F9"/>
<rect x="246" width="15" height="15" fill="#F1F5F9"/>
<rect x="287" width="15" height="15" fill="#F1F5F9"/>
<rect x="287" y="43" width="15" height="15" fill="#F1F5F9"/>
<rect x="287" y="86" width="15" height="15" fill="#F1F5F9"/>
<rect x="287" y="129" width="15" height="15" fill="#F1F5F9"/>
<rect x="287" y="172" width="15" height="15" fill="#F1F5F9"/>
<rect x="287" y="215" width="15" height="15" fill="#F1F5F9"/>
<rect x="246" y="43" width="15" height="15" fill="#F1F5F9"/>
<rect x="246" y="86" width="15" height="15" fill="#F1F5F9"/>
<rect x="246" y="129" width="15" height="15" fill="#F1F5F9"/>
<rect x="246" y="172" width="15" height="15" fill="#F1F5F9"/>
<rect x="246" y="215" width="15" height="15" fill="#F1F5F9"/>
<rect x="205" y="43" width="15" height="15" fill="#F1F5F9"/>
<rect x="205" y="86" width="15" height="15" fill="#F1F5F9"/>
<rect x="205" y="129" width="15" height="15" fill="#F1F5F9"/>
<rect x="205" y="172" width="15" height="15" fill="#F1F5F9"/>
<rect x="205" y="215" width="15" height="15" fill="#F1F5F9"/>
<rect x="164" y="43" width="15" height="15" fill="#F1F5F9"/>
<rect x="164" y="86" width="15" height="15" fill="#F1F5F9"/>
<rect x="164" y="129" width="15" height="15" fill="#F1F5F9"/>
<rect x="164" y="172" width="15" height="15" fill="#F1F5F9"/>
<rect x="164" y="215" width="15" height="15" fill="#F1F5F9"/>
<rect x="123" y="43" width="15" height="15" fill="#F1F5F9"/>
<rect x="123" y="86" width="15" height="15" fill="#F1F5F9"/>
<rect x="123" y="129" width="15" height="15" fill="#F1F5F9"/>
<rect x="123" y="172" width="15" height="15" fill="#F1F5F9"/>
<rect x="123" y="215" width="15" height="15" fill="#F1F5F9"/>
<rect x="82" y="43" width="15" height="15" fill="#F1F5F9"/>
<rect x="82" y="86" width="15" height="15" fill="#F1F5F9"/>
<rect x="82" y="129" width="15" height="15" fill="#F1F5F9"/>
<rect x="82" y="172" width="15" height="15" fill="#F1F5F9"/>
<rect x="82" y="215" width="15" height="15" fill="#F1F5F9"/>
<rect x="41" y="43" width="15" height="15" fill="#F1F5F9"/>
<rect x="41" y="86" width="15" height="15" fill="#F1F5F9"/>
<rect x="41" y="129" width="15" height="15" fill="#F1F5F9"/>
<rect x="41" y="172" width="15" height="15" fill="#F1F5F9"/>
<rect x="41" y="215" width="15" height="15" fill="#F1F5F9"/>
<rect y="43" width="15" height="15" fill="#F1F5F9"/>
<rect y="86" width="15" height="15" fill="#F1F5F9"/>
<rect y="129" width="15" height="15" fill="#F1F5F9"/>
<rect y="172" width="15" height="15" fill="#F1F5F9"/>
<rect y="215" width="15" height="15" fill="#F1F5F9"/>
</svg>
